<?xml version="1.0" encoding="UTF-8" standalone="no"?>
<!-- Created with Inkscape (http://www.inkscape.org/) -->

<svg
   xmlns:dc="http://purl.org/dc/elements/1.1/"
   xmlns:cc="http://creativecommons.org/ns#"
   xmlns:rdf="http://www.w3.org/1999/02/22-rdf-syntax-ns#"
   xmlns:svg="http://www.w3.org/2000/svg"
   xmlns="http://www.w3.org/2000/svg"
   xmlns:sodipodi="http://sodipodi.sourceforge.net/DTD/sodipodi-0.dtd"
   xmlns:inkscape="http://www.inkscape.org/namespaces/inkscape"
   width="345.987"
   height="475.67319"
   id="svg3016"
   version="1.1"
   inkscape:version="0.48.3.1 r9886"
   sodipodi:docname="New document 1">
  <defs
     id="defs3018" />
  <sodipodi:namedview
     id="base"
     pagecolor="#ffffff"
     bordercolor="#666666"
     borderopacity="1.0"
     inkscape:pageopacity="0.0"
     inkscape:pageshadow="2"
     inkscape:zoom="0.77472527"
     inkscape:cx="317.4038"
     inkscape:cy="239.49617"
     inkscape:current-layer="layer1"
     inkscape:document-units="px"
     showgrid="false"
     fit-margin-top="0"
     fit-margin-left="0"
     fit-margin-right="0"
     fit-margin-bottom="0"
     inkscape:window-width="1024"
     inkscape:window-height="576"
     inkscape:window-x="0"
     inkscape:window-y="24"
     inkscape:window-maximized="1" />
  <metadata
     id="metadata3021">
    <rdf:RDF>
      <cc:Work
         rdf:about="">
        <dc:format>image/svg+xml</dc:format>
        <dc:type
           rdf:resource="http://purl.org/dc/dcmitype/StillImage" />
        <dc:title></dc:title>
      </cc:Work>
    </rdf:RDF>
  </metadata>
  <g
     id="layer1"
     inkscape:label="Layer 1"
     inkscape:groupmode="layer"
     transform="translate(-2.596201,-3.822967)">
    <g
       id="g3211"
       transform="matrix(0.76691725,0,0,0.76691725,-1.1310706,-279.45019)">
      <path
         d="m 200.98,601.671 c 0,0 -157.048,285.819 -57.493,292.242 99.555,6.423 202.453,16.058 253.771,-11.24 51.317,-27.297 -66.469,-266.551 -81.438,-274.579 -14.971,-8.029 -114.84,-6.423 -114.84,-6.423 z"
         id="body_1_"
         inkscape:connector-curvature="0" />
      <g
         id="tail_1_">
        <path
           d="m 147.604,875.813 -0.179,-0.194 -0.089,-0.098 c -0.058,-0.061 0.101,0.098 0.142,0.135 l 0.422,0.382 0.254,0.213 c 0.278,0.218 0.507,0.387 0.729,0.534 0.438,0.29 0.749,0.453 0.975,0.552 0.449,0.19 0.521,0.122 0.362,-0.01 -0.332,-0.284 -1.526,-0.804 -3.019,-1.236 -3.044,-0.901 -7.252,-1.571 -11.641,-1.921 -8.881,-0.708 -18.721,-0.318 -28.354,0.896 -9.657,1.225 -19.274,3.289 -28.164,6.222 -4.438,1.466 -8.689,3.154 -12.577,5.049 -3.883,1.89 -7.4,4 -10.25,6.181 -2.857,2.177 -4.979,4.396 -6.285,6.305 -1.308,1.943 -1.949,3.465 -2.21,5.516 -0.254,2.028 0.079,4.797 1.273,8.075 1.186,3.268 3.176,6.915 5.709,10.563 2.522,3.613 5.655,7.468 8.809,10.67 3.159,3.226 6.575,6.141 10.246,8.724 7.335,5.169 15.739,8.977 24.935,11.411 9.189,2.446 19.118,3.532 29.327,3.567 10.218,0.039 20.711,-0.947 31.259,-2.602 21.144,-3.317 42.377,-9.278 63.875,-15.697 10.792,-3.188 21.606,-6.563 33.096,-9.393 2.881,-0.699 5.817,-1.354 8.862,-1.916 3.049,-0.557 6.199,-1.032 9.634,-1.254 1.721,-0.106 3.518,-0.148 5.459,-0.039 1.944,0.118 4.03,0.359 6.364,1.017 2.304,0.651 4.955,1.771 7.385,3.796 l 1.594,1.419 c 0.393,0.34 0.796,0.668 1.211,0.984 3.303,2.539 7.292,4.356 11.641,5.365 4.343,1.007 9.033,1.212 13.583,0.609 4.521,-0.59 9.015,-2.033 12.333,-4.147 1.644,-1.035 2.928,-2.251 3.564,-3.224 0.326,-0.485 0.5,-0.882 0.59,-1.203 0.094,-0.326 0.121,-0.603 0.076,-1.002 l -0.078,-0.697 c -0.494,-4.403 2.676,-8.373 7.08,-8.866 4.087,-0.458 7.8,2.24 8.707,6.151 0.548,2.352 0.646,4.946 0.211,7.389 -0.419,2.45 -1.317,4.706 -2.431,6.638 -2.26,3.881 -5.215,6.577 -8.198,8.722 -3.009,2.131 -6.144,3.702 -9.33,4.938 -3.188,1.23 -6.435,2.114 -9.722,2.71 -6.568,1.182 -13.322,1.238 -20.025,0.031 -6.685,-1.209 -13.346,-3.774 -19.194,-7.825 -0.731,-0.503 -1.447,-1.028 -2.148,-1.576 -0.653,-0.493 -1.742,-1.438 -1.63,-1.309 0.233,0.248 0.238,0.229 -0.178,0.178 -0.821,-0.132 -2.833,-0.124 -4.972,0.205 -4.389,0.636 -9.49,2.093 -14.539,3.727 -10.185,3.335 -20.628,7.457 -31.18,11.466 -21.132,8.074 -42.87,16.07 -65.959,21.521 -11.545,2.713 -23.442,4.79 -35.743,5.686 -12.285,0.886 -25.025,0.576 -37.862,-1.788 -12.809,-2.337 -25.702,-6.88 -37.385,-13.818 -5.838,-3.455 -11.363,-7.468 -16.454,-11.91 -5.069,-4.495 -9.596,-8.944 -14.046,-14.176 -4.404,-5.215 -8.609,-11.073 -12.075,-18.075 -1.72,-3.506 -3.246,-7.299 -4.395,-11.416 -1.15,-4.106 -1.915,-8.542 -2.095,-13.148 -0.188,-4.6 0.227,-9.354 1.253,-13.937 1.019,-4.587 2.634,-8.978 4.63,-12.981 4.018,-8.041 9.386,-14.474 14.94,-19.761 5.59,-5.289 11.456,-9.525 17.373,-13.175 5.925,-3.64 11.925,-6.686 17.965,-9.346 12.088,-5.297 24.329,-9.112 36.827,-11.927 12.528,-2.769 25.223,-4.585 38.873,-4.852 6.865,-0.089 13.931,0.161 21.929,1.516 4.02,0.708 8.282,1.674 13.176,3.497 2.45,0.926 5.07,2.076 7.934,3.717 1.433,0.825 2.919,1.769 4.473,2.917 0.779,0.578 1.559,1.186 2.363,1.872 l 0.649,0.563 0.809,0.742 0.433,0.403 0.196,0.177 c 12.008,10.823 12.968,29.332 2.145,41.339 -10.823,12.008 -29.332,12.968 -41.339,2.145 -0.666,-0.6 -1.298,-1.224 -1.896,-1.868 l -0.033,-0.048 z"
           id="path3215"
           inkscape:connector-curvature="0" />
      </g>
      <g
         id="paws">
        <g
           id="g3218">
          <path
             d="m 144.757,876.429 c 3.208,-4.687 7.604,-8.563 12.604,-11.496 4.992,-2.943 10.819,-4.798 16.803,-4.892 5.98,-0.13 11.942,1.612 16.926,4.638 5.024,2.991 9.196,7.089 12.4,11.75 -4.499,-3.428 -9.057,-6.568 -13.953,-8.789 -4.894,-2.201 -10.08,-3.433 -15.307,-3.342 -5.228,0.063 -10.424,1.422 -15.37,3.571 -4.934,2.196 -9.645,5.102 -14.103,8.56 z"
             id="path3220"
             style="fill:#ffffff"
             inkscape:connector-curvature="0" />
        </g>
        <g
           id="g3222">
          <path
             d="m 215.344,862.164 c 3.208,-4.687 7.604,-8.563 12.604,-11.495 4.992,-2.944 10.819,-4.798 16.803,-4.892 5.98,-0.13 11.942,1.611 16.927,4.637 5.024,2.991 9.196,7.09 12.4,11.75 -4.499,-3.428 -9.057,-6.567 -13.953,-8.789 -4.894,-2.2 -10.081,-3.432 -15.307,-3.341 -5.229,0.063 -10.424,1.422 -15.371,3.57 -4.934,2.198 -9.646,5.102 -14.103,8.56 z"
             id="path3224"
             style="fill:#ffffff"
             inkscape:connector-curvature="0" />
        </g>
        <g
           id="g3226">
          <path
             d="m 274.078,862.164 c 3.208,-4.687 7.604,-8.563 12.604,-11.495 4.992,-2.944 10.819,-4.798 16.802,-4.892 5.98,-0.13 11.942,1.611 16.926,4.637 5.024,2.991 9.195,7.09 12.399,11.75 -4.499,-3.428 -9.057,-6.567 -13.953,-8.789 -4.893,-2.2 -10.08,-3.432 -15.306,-3.341 -5.228,0.063 -10.423,1.422 -15.37,3.57 -4.933,2.198 -9.645,5.102 -14.102,8.56 z"
             id="path3228"
             style="fill:#ffffff"
             inkscape:connector-curvature="0" />
        </g>
        <g
           id="g3230">
          <path
             d="m 327.672,883.561 c 3.208,-4.687 7.604,-8.563 12.604,-11.495 4.992,-2.944 10.819,-4.798 16.803,-4.892 5.98,-0.13 11.942,1.611 16.927,4.637 5.024,2.991 9.196,7.09 12.4,11.75 -4.499,-3.428 -9.057,-6.567 -13.953,-8.789 -4.894,-2.2 -10.081,-3.432 -15.307,-3.341 -5.229,0.063 -10.424,1.422 -15.371,3.57 -4.933,2.197 -9.645,5.102 -14.103,8.56 z"
             id="path3232"
             style="fill:#ffffff"
             inkscape:connector-curvature="0" />
        </g>
      </g>
      <ellipse
         cx="267.414"
         cy="507.60501"
         rx="156.98399"
         ry="116.415"
         id="head_1_"
         sodipodi:cx="267.414"
         sodipodi:cy="507.60501"
         sodipodi:rx="156.98399"
         sodipodi:ry="116.415"
         d="m 424.39799,507.60501 c 0,64.29423 -70.28412,116.415 -156.98399,116.415 -86.69986,0 -156.98399,-52.12077 -156.98399,-116.415 0,-64.29423 70.28413,-116.415 156.98399,-116.415 86.69987,0 156.98399,52.12077 156.98399,116.415 z" />
      <g
         id="eye_right_2_">
        <path
           d="m 405.748,474.406 c 0,0 -75.808,-39.73 -91.09,36.019 76.3,43.877 91.09,-36.019 91.09,-36.019 z"
           id="path3236"
           style="fill:#ffffff"
           inkscape:connector-curvature="0" />
        <ellipse
           cx="349.16599"
           cy="498.505"
           rx="14.306"
           ry="21.277"
           id="ellipse3238"
           sodipodi:cx="349.16599"
           sodipodi:cy="498.505"
           sodipodi:rx="14.306"
           sodipodi:ry="21.277"
           d="m 363.47198,498.505 c 0,11.75097 -6.40501,21.27701 -14.30599,21.27701 -7.90099,0 -14.306,-9.52604 -14.306,-21.27701 0,-11.75096 6.40501,-21.277 14.306,-21.277 7.90098,0 14.30599,9.52604 14.30599,21.277 z" />
      </g>
      <g
         id="eye_left_2_">
        <path
           d="m 127.094,474.406 c 0,0 75.805,-39.73 91.087,36.019 -76.3,43.877 -91.087,-36.019 -91.087,-36.019 z"
           id="path3241"
           style="fill:#ffffff"
           inkscape:connector-curvature="0" />
        <ellipse
           cx="172.638"
           cy="493.789"
           rx="14.307"
           ry="21.277"
           id="ellipse3243"
           sodipodi:cx="172.638"
           sodipodi:cy="493.789"
           sodipodi:rx="14.307"
           sodipodi:ry="21.277"
           d="m 186.945,493.789 c 0,11.75096 -6.40546,21.277 -14.307,21.277 -7.90154,0 -14.307,-9.52604 -14.307,-21.277 0,-11.75096 6.40546,-21.277 14.307,-21.277 7.90154,0 14.307,9.52604 14.307,21.277 z" />
      </g>
      <path
         d="m 250.889,542.114 c 0,5.355 9.645,17.808 21.544,17.808 11.899,0 21.544,-12.452 21.544,-17.808 0,-5.354 -9.645,-9.696 -21.544,-9.696 -11.899,0 -21.544,4.342 -21.544,9.696 z"
         id="nose_1_"
         style="fill:#ffffff"
         inkscape:connector-curvature="0" />
      <polygon
         points="320.566,415.353 407.814,369.366 399.313,450.353 "
         id="ear_left_2_" />
      <polygon
         points="210.424,415.353 123.176,369.366 131.678,450.353 "
         id="ear_right_2_" />
      <g
         id="mustaches_right">
        <line
           style="fill:none;stroke:#000000;stroke-width:1.60570002;stroke-miterlimit:10"
           stroke-miterlimit="10"
           x1="314.65701"
           y1="553.49902"
           x2="455.80099"
           y2="515.06598"
           id="line3249" />
        <line
           style="fill:none;stroke:#000000;stroke-width:1.60570002;stroke-miterlimit:10"
           stroke-miterlimit="10"
           x1="314.65701"
           y1="559.922"
           x2="446.97"
           y2="559.922"
           id="line3251" />
        <line
           style="fill:none;stroke:#000000;stroke-width:1.60570002;stroke-miterlimit:10"
           stroke-miterlimit="10"
           x1="314.65701"
           y1="569.55701"
           x2="424.39801"
           y2="601.54102"
           id="line3253" />
      </g>
      <g
         id="mustaches_left">
        <line
           style="fill:none;stroke:#000000;stroke-width:1.60570002;stroke-miterlimit:10"
           stroke-miterlimit="10"
           x1="224.87601"
           y1="558.21399"
           x2="83.732002"
           y2="519.78198"
           id="line3256" />
        <line
           style="fill:none;stroke:#000000;stroke-width:1.60570002;stroke-miterlimit:10"
           stroke-miterlimit="10"
           x1="224.87601"
           y1="564.638"
           x2="92.563004"
           y2="564.638"
           id="line3258" />
        <line
           style="fill:none;stroke:#000000;stroke-width:1.60570002;stroke-miterlimit:10"
           stroke-miterlimit="10"
           x1="224.87601"
           y1="574.271"
           x2="115.135"
           y2="606.255"
           id="line3260" />
      </g>
    </g>
  </g>
</svg>
